# xmcd
#
# Track frame offsets:
#	182
#	13942
#	30510
#	48972
#	65440
#	76382
#	96802
#	112545
#	126132
#	137955
#
# Disc length: 1999 seconds
#
# Revision: 5
# Processed by: cddbd v1.5.2PL0 Copyright (c) Steve Scherf et al.
# Submitted via: audiograbber 1.83.01
#
DISCID=7907cd0a
DTITLE=Various Artist - New Country - August 1994
DYEAR=1994
DGENRE=Country
TTITLE0=Ricky Lynn Gregg - After The Fire Is Gone
TTITLE1=Diamond Rio - Love A Little Stronger
TTITLE2=Kennedy Rose - She Walks The Line
TTITLE3=Cheryl Wheeler - Silver Lining
TTITLE4=Tim and Mollie O'Brien - Wichita
TTITLE5=Carrie Newcomer - Streamline
TTITLE6=Gibson/Miller Band - Mammas Don't Let Your Babies Grow Up To Be Cowboys
TTITLE7=David Ball - Thinkin' Problem
TTITLE8=Dave Edmunds - The Claw
TTITLE9=Jeff Foxworthy - You Might Be A Redneck If....
EXTD=
EXTT0=
EXTT1=
EXTT2=
EXTT3=
EXTT4=
EXTT5=
EXTT6=
EXTT7=
EXTT8=
EXTT9=
PLAYORDER=
